<svg xmlns="http://www.w3.org/2000/svg" xmlns:xlink="http://www.w3.org/1999/xlink" viewBox="0 0 723.03 937.77"><defs><style>.cls-1{fill:#2d82b5;}.cls-2{fill:url(#linear-gradient);}.cls-3{fill:url(#linear-gradient-2);}.cls-4{fill:#f1f2f2;}.cls-5{fill:#89ccf8;}.cls-6{fill:#52a7d8;}.cls-7{fill:url(#linear-gradient-3);}.cls-8{fill:url(#linear-gradient-4);}.cls-9{fill:#00aab5;}</style><linearGradient id="linear-gradient" x1="541.95" y1="818.98" x2="540.88" y2="988.28" gradientUnits="userSpaceOnUse"><stop offset="0" stop-color="#2d82b5"/><stop offset="1" stop-color="#015c92"/></linearGradient><linearGradient id="linear-gradient-2" x1="182.42" y1="816.68" x2="181.35" y2="985.98" gradientUnits="userSpaceOnUse"><stop offset="0" stop-color="#2d82b5"/><stop offset="1" stop-color="#015c92"/></linearGradient><linearGradient id="linear-gradient-3" x1="197.26" y1="698.74" x2="385.74" y2="898.92" gradientUnits="userSpaceOnUse"><stop offset="0.21" stop-color="#2d82b5"/><stop offset="1" stop-color="#015c92"/></linearGradient><linearGradient id="linear-gradient-4" x1="-163.36" y1="698.74" x2="25.12" y2="898.92" gradientTransform="matrix(-1, 0, 0, 1, 361.44, 0)" xlink:href="#linear-gradient-3"/></defs><g id="Layer_2" data-name="Layer 2"><g id="Layer_1-2" data-name="Layer 1"><path class="cls-1" d="M398.6,142.66l-37.25-37.28-37.27,37.29L142.64,324.08H308.91l-73.68,73.47a4.6,4.6,0,0,1-2.95,1.06L.21,398.76l0-35.3a4.41,4.41,0,0,1,1.27-3.63L324.08,37.26,361.35,0,398.6,37.25,722.68,361.34,398.6,685.44v-103a5.84,5.84,0,0,1,1.7-4.12l217-217Z"/><path class="cls-2" d="M723,937.77H359.36l75-75H713.74a9.29,9.29,0,0,1,9.29,9.29Z"/><path class="cls-3" d="M288.7,862.77l75,75H0V872.05a9.29,9.29,0,0,1,9.28-9.28Z"/><circle class="cls-1" cx="256.59" cy="515.27" r="55.5"/><polygon class="cls-4" points="46.22 602.28 92.43 648.5 46.21 602.28 46.22 602.28"/><polygon class="cls-4" points="104.09 660.16 92.43 648.5 92.44 648.5 104.09 660.16"/><path class="cls-5" d="M135.09,616.12,46.22,602.77h0L0,556.55l87,13.18a64.6,64.6,0,0,1,34.6,16.84l49.18,46.34A66.75,66.75,0,0,0,135.09,616.12Z"/><path class="cls-6" d="M218.51,677.71c-9.76-9.12-23.93-13.59-37.2-15.59l-17.05-2.56L92.44,648.77h0L46.22,602.55l88.87,13.35a66.75,66.75,0,0,1,35.64,16.79l28,26.37Z"/><path class="cls-7" d="M361,811.54V916.92l-.1.1L286.41,842.5,149.9,706l-46.21-46.22h0L92,648.11l71.82,10.79,17.05,2.56c13.27,2,27.44,6.47,37.2,15.59l29.22,27.53,113.61,107Z"/><path class="cls-5" d="M587.64,616.12l88.87-13.35h0l46.21-46.22-87,13.18a64.6,64.6,0,0,0-34.6,16.84L552,632.91A66.75,66.75,0,0,1,587.64,616.12Z"/><path class="cls-6" d="M504.22,677.71c9.76-9.12,23.93-13.59,37.2-15.59l17.05-2.56,71.82-10.79h0l46.21-46.22L587.64,615.9A66.75,66.75,0,0,0,552,632.69l-28,26.37Z"/><path class="cls-8" d="M361,811.54V916.92l.1.1,74.52-74.52L572.16,706l46.21-46.22h0L630,648.11,558.21,658.9l-17.05,2.56c-13.27,2-27.44,6.47-37.2,15.59l-29.22,27.53-113.61,107Z"/><polygon class="cls-9" points="104.09 660.16 92.43 648.5 92.44 648.5 104.09 660.16"/><polygon class="cls-9" points="150.31 706.38 104.09 660.16 104.1 660.16 150.31 706.38"/><path class="cls-9" d="M0,556.06l46.21,46.22Z"/></g></g></svg>