<?xml version="1.0" encoding="UTF-8"?><svg xmlns="http://www.w3.org/2000/svg" viewBox="0 0 723.12 937.77"><defs><style>.d{fill:#2d82b5;}.e{fill:#89ccf8;}.f{fill:#f1f2f2;}.g{fill:#52a7d8;}</style></defs><g id="a"/><g id="b"><g id="c"><path class="d" d="M398.6,142.66l-37.25-37.27-37.27,37.28-181.44,181.41h166.27l-73.68,73.47c-.83,.68-1.87,1.06-2.94,1.06l-232.07,.15,.03-35.3c-.16-1.34,.31-2.68,1.26-3.63L324.08,37.26,361.35,0l37.25,37.25,324.08,324.09-324.08,324.1v-102.99c0-1.55,.61-3.03,1.71-4.12l216.99-216.99-218.7-218.68Z"/><g><path class="d" d="M723.03,937.77H359.36l75-75h279.38c5.13,0,9.29,4.16,9.29,9.29v65.71Z"/><path class="d" d="M288.7,862.77l75,75H.03v-65.72c0-5.13,4.16-9.28,9.28-9.28H288.7Z"/></g><polygon class="f" points="46.22 602.28 92.43 648.5 46.21 602.28 46.22 602.28"/><polygon class="f" points="104.09 660.16 92.43 648.5 92.44 648.5 104.09 660.16"/><path class="e" d="M135.09,616.12l-88.87-13.35h-.01L0,556.55l86.95,13.18c12.98,1.97,25.04,7.84,34.6,16.84l49.18,46.34c-9.76-9.11-22.37-14.79-35.64-16.79Z"/><path class="g" d="M218.51,677.93c-9.76-9.12-23.93-13.59-37.2-15.59l-17.05-2.56-71.82-10.79h0l-46.21-46.22,88.87,13.35c13.27,2,25.88,7.68,35.64,16.79l27.99,26.37,19.79,18.65Z"/><path class="d" d="M630.56,649l-11.65,11.66h-.01l-46.21,46.22-136.51,136.51-74.52,74.52-.1-.1-.1,.1-74.52-74.52-136.51-136.51-46.21-46.22h-.01l-11.65-11.66,71.82,10.79,17.05,2.56c13.27,2,27.44,6.47,37.2,15.59l29.22,27.53,113.61,107.05,.1-.09,.1,.09,113.61-107.05,29.22-27.53c9.76-9.12,23.93-13.59,37.2-15.59l17.05-2.56,71.82-10.79Z"/><path class="e" d="M588.03,616.12l88.87-13.35h.01l46.21-46.22-86.95,13.18c-12.98,1.97-25.04,7.84-34.6,16.84l-49.18,46.34c9.76-9.11,22.37-14.79,35.64-16.79Z"/><path class="g" d="M504.61,677.93c9.76-9.12,23.93-13.59,37.2-15.59l17.05-2.56,71.82-10.79h0l46.21-46.22-88.87,13.35c-13.27,2-25.88,7.68-35.64,16.79l-27.99,26.37-19.79,18.65Z"/></g></g></svg>