<?xml version="1.0" encoding="UTF-8"?><svg id="a" xmlns="http://www.w3.org/2000/svg" viewBox="0 0 1365.82 391.74"><defs><style>.b{fill:#2d82b5;}.c{fill:#89ccf8;}.d{fill:#f1f2f2;}.e{fill:#52a7d8;}</style></defs><g><path class="c" d="M362.12,99.27l-228.55-.31h-.03L0,0,223.66,.6c33.39,.1,65.92,10.35,93.34,29.41l141.06,98.16c-27.96-19.26-61.81-28.83-95.94-28.89Z"/><path class="e" d="M595.11,223.52c-27.97-19.29-65.28-25.23-99.41-25.29l-43.85-.06-184.7-.25h-.03L133.57,98.96l228.55,.31c34.13,.06,67.98,9.63,95.94,28.89l80.28,55.86,56.76,39.51Z"/><path class="b" d="M837.21,391.74h-308.16l-.21-.16-94.15-69.75-133.55-98.97h-.02l-33.64-24.94-.03-.02,184.7,.25,43.85,.06c32.19,.06,67.22,5.34,94.55,22.14,1.65,1,3.27,2.05,4.86,3.15l83.81,58.31,3.69,2.57,154.07,107.2,.23,.16Z"/></g><g><path class="c" d="M1003.7,99.27l228.55-.31h.03L1365.82,0l-223.66,.6c-33.39,.1-65.92,10.35-93.34,29.41l-141.06,98.16c27.96-19.26,61.81-28.83,95.94-28.89Z"/><path class="e" d="M770.71,223.52c27.97-19.29,65.28-25.23,99.41-25.29l43.85-.06,184.7-.25h.03l133.55-98.96-228.55,.31c-34.13,.06-67.98,9.63-95.94,28.89l-80.28,55.86-56.76,39.51Z"/><path class="b" d="M1098.37,197.9l-.03,.02-33.64,24.95h-.02l-133.55,98.96-94.15,69.75-.21,.16h-308.16l.23-.16,154.07-107.2,3.69-2.57,83.81-58.31c1.59-1.09,3.2-2.14,4.85-3.15,27.33-16.79,62.37-22.08,94.56-22.14l43.85-.06,184.7-.25Z"/></g><g><path class="b" d="M690.46,38.62l-7.8-7.81-7.81,7.81-38,37.99h34.82l-15.43,15.39c-.17,.14-.39,.22-.62,.22l-48.6,.03v-7.39c-.03-.28,.07-.56,.27-.76l67.55-67.55,7.81-7.8,7.8,7.8,67.87,67.87-67.87,67.87v-21.57c0-.32,.13-.63,.36-.86l45.44-45.44-45.8-45.8Z"/><g><path class="b" d="M758.4,205.13h-76.16l15.71-15.71h58.51c1.07,0,1.95,.87,1.95,1.95v13.76Z"/><path class="b" d="M667.45,189.42l15.71,15.71h-76.16v-13.76c0-1.07,.87-1.94,1.94-1.94h58.51Z"/></g><polygon class="d" points="616.67 134.87 626.35 144.55 616.67 134.87 616.67 134.87"/><polygon class="d" points="628.79 146.99 626.35 144.55 626.35 144.55 628.79 146.99"/><path class="c" d="M635.28,137.77l-18.61-2.8h0l-9.68-9.68,18.21,2.76c2.72,.41,5.24,1.64,7.25,3.53l10.3,9.7c-2.04-1.91-4.68-3.1-7.46-3.52Z"/><path class="e" d="M652.75,150.71c-2.04-1.91-5.01-2.85-7.79-3.26l-3.57-.54-15.04-2.26h0l-9.68-9.68,18.61,2.8c2.78,.42,5.42,1.61,7.46,3.52l5.86,5.52,4.14,3.91Z"/><path class="b" d="M739.04,144.66l-2.44,2.44h0l-9.68,9.68-28.59,28.59-15.61,15.61-.02-.02-.02,.02-15.61-15.61-28.59-28.59-9.68-9.68h0l-2.44-2.44,15.04,2.26,3.57,.54c2.78,.42,5.75,1.35,7.79,3.26l6.12,5.77,23.79,22.42,.02-.02,.02,.02,23.79-22.42,6.12-5.77c2.04-1.91,5.01-2.85,7.79-3.26l3.57-.54,15.04-2.26Z"/><path class="c" d="M730.13,137.77l18.61-2.8h0l9.68-9.68-18.21,2.76c-2.72,.41-5.24,1.64-7.25,3.53l-10.3,9.7c2.04-1.91,4.68-3.1,7.46-3.52Z"/><path class="e" d="M712.66,150.71c2.04-1.91,5.01-2.85,7.79-3.26l3.57-.54,15.04-2.26h0l9.68-9.68-18.61,2.8c-2.78,.42-5.42,1.61-7.46,3.52l-5.86,5.52-4.14,3.91Z"/></g></svg>