<?xml version="1.0" encoding="UTF-8"?><svg xmlns="http://www.w3.org/2000/svg" viewBox="0 0 594.37 343.65"><defs><style>.d,.e,.f{fill:#2d82b5;}.g{fill:#89ccf8;}.h{fill:#f1f2f2;}.e{font-family:OpenSans, Open Sans;font-size:127.54px;}.f{font-family:OpenSans-Bold, Open Sans;font-size:181.31px;letter-spacing:.02em;}.i{fill:#52a7d8;}</style></defs><g id="a"/><g id="b"><g id="c"><g><text class="f" transform="translate(214.15 290.53)"><tspan x="0" y="0">elas</tspan></text><text class="e" transform="translate(209.3 109.3)"><tspan x="0" y="0">abung</tspan></text><g><path class="d" d="M118.6,54.22l-11.08-11.09-11.09,11.09-53.98,53.98h49.47l-21.92,21.86c-.25,.2-.56,.32-.88,.32l-69.05,.04v-10.5c-.04-.4,.1-.8,.39-1.08L96.42,22.86l11.09-11.09,11.08,11.08,96.43,96.43-96.43,96.43v-30.64c0-.46,.18-.9,.51-1.23l64.56-64.56L118.6,54.22Z"/><g><path class="d" d="M215.13,290.8H106.92l22.32-22.32h83.13c1.53,0,2.76,1.24,2.76,2.76v19.55Z"/><path class="d" d="M85.9,268.48l22.32,22.32H0v-19.55c0-1.53,1.24-2.76,2.76-2.76H85.9Z"/></g><polygon class="h" points="13.75 190.98 27.5 204.73 13.75 190.98 13.75 190.98"/><polygon class="h" points="30.97 208.2 27.5 204.73 27.5 204.73 30.97 208.2"/><path class="g" d="M40.19,195.1l-26.44-3.97h0L0,177.37l25.87,3.92c3.86,.59,7.45,2.33,10.29,5.01l14.63,13.79c-2.9-2.71-6.66-4.4-10.6-5Z"/><path class="i" d="M65.01,213.49c-2.9-2.71-7.12-4.04-11.07-4.64l-5.07-.76-21.37-3.21h0l-13.75-13.75,26.44,3.97c3.95,.6,7.7,2.29,10.6,5l8.33,7.85,5.89,5.55Z"/><path class="d" d="M187.61,204.88l-3.47,3.47h0l-13.75,13.75-40.62,40.62-22.17,22.17-.03-.03-.03,.03-22.17-22.17-40.62-40.62-13.75-13.75h0l-3.47-3.47,21.37,3.21,5.07,.76c3.95,.6,8.16,1.93,11.07,4.64l8.69,8.19,33.8,31.85,.03-.03,.03,.03,33.8-31.85,8.69-8.19c2.9-2.71,7.12-4.04,11.07-4.64l5.07-.76,21.37-3.21Z"/><path class="g" d="M174.96,195.1l26.44-3.97h0l13.75-13.75-25.87,3.92c-3.86,.59-7.45,2.33-10.29,5.01l-14.63,13.79c2.9-2.71,6.66-4.4,10.6-5Z"/><path class="i" d="M150.14,213.49c2.9-2.71,7.12-4.04,11.07-4.64l5.07-.76,21.37-3.21h0l13.75-13.75-26.44,3.97c-3.95,.6-7.7,2.29-10.6,5l-8.33,7.85-5.89,5.55Z"/></g></g></g></g></svg>