<svg xmlns="http://www.w3.org/2000/svg" xmlns:xlink="http://www.w3.org/1999/xlink" viewBox="0 0 608.96 343.65"><defs><style>.cls-1{font-size:181.31px;font-family:OpenSans-Bold, Open Sans;font-weight:700;letter-spacing:0.02em;}.cls-1,.cls-2,.cls-3{fill:#2d82b5;}.cls-2{font-size:127.54px;font-family:OpenSans, Open Sans;}.cls-4{fill:url(#linear-gradient);}.cls-5{fill:url(#linear-gradient-2);}.cls-6{fill:#f1f2f2;}.cls-7{fill:#89ccf8;}.cls-8{fill:#52a7d8;}.cls-9{fill:url(#linear-gradient-3);}.cls-10{fill:url(#linear-gradient-4);}.cls-11{fill:#00aab5;}</style><linearGradient id="linear-gradient" x1="163.41" y1="252.9" x2="163.09" y2="303.95" gradientUnits="userSpaceOnUse"><stop offset="0" stop-color="#2d82b5"/><stop offset="1" stop-color="#015c92"/></linearGradient><linearGradient id="linear-gradient-2" x1="55" y1="252.21" x2="54.68" y2="303.26" gradientUnits="userSpaceOnUse"><stop offset="0" stop-color="#2d82b5"/><stop offset="1" stop-color="#015c92"/></linearGradient><linearGradient id="linear-gradient-3" x1="59.48" y1="216.65" x2="116.31" y2="277" gradientUnits="userSpaceOnUse"><stop offset="0.21" stop-color="#2d82b5"/><stop offset="1" stop-color="#015c92"/></linearGradient><linearGradient id="linear-gradient-4" x1="237.73" y1="216.65" x2="294.56" y2="277" gradientTransform="matrix(-1, 0, 0, 1, 395.97, 0)" xlink:href="#linear-gradient-3"/></defs><g id="Layer_2" data-name="Layer 2"><g id="Layer_1-2" data-name="Layer 1"><text class="cls-1" transform="translate(228.75 290.53)">elas</text><text class="cls-2" transform="translate(223.9 109.3)">abung</text><path class="cls-3" d="M120.19,49,109,37.73,97.72,49,43,103.68H93.14L70.93,125.83a1.39,1.39,0,0,1-.89.32l-70,0V115.55a1.36,1.36,0,0,1,.38-1.09L97.72,17.19,109,6l11.23,11.23,97.72,97.72-97.72,97.73V181.58a1.76,1.76,0,0,1,.51-1.24l65.43-65.43Z"/><path class="cls-4" d="M218,288.72H108.36L131,266.11h84.24a2.8,2.8,0,0,1,2.8,2.8Z"/><path class="cls-5" d="M87.05,266.11l22.61,22.61H0V268.9a2.79,2.79,0,0,1,2.8-2.79Z"/><circle class="cls-3" cx="77.37" cy="161.33" r="16.73"/><polygon class="cls-6" points="13.94 187.56 27.87 201.5 13.93 187.56 13.94 187.56"/><polygon class="cls-6" points="31.39 205.01 27.87 201.5 27.87 201.5 31.39 205.01"/><path class="cls-7" d="M40.73,191.73l-26.79-4h0L0,173.77l26.22,4a19.46,19.46,0,0,1,10.43,5.07l14.83,14A20.17,20.17,0,0,0,40.73,191.73Z"/><path class="cls-8" d="M65.89,210.31c-3-2.75-7.22-4.1-11.22-4.71l-5.14-.77-21.66-3.25h0L13.94,187.64l26.79,4a20.08,20.08,0,0,1,10.75,5.06l8.44,8Z"/><path class="cls-9" d="M108.86,250.66v31.77l0,0L86.36,260,45.2,218.83,31.27,204.9h0l-3.51-3.52,21.65,3.25,5.15.78c4,.6,8.27,2,11.21,4.7l8.81,8.3,34.26,32.28Z"/><path class="cls-7" d="M177.19,191.73l26.8-4h0l13.93-13.94-26.22,4a19.46,19.46,0,0,0-10.43,5.07l-14.83,14A20.2,20.2,0,0,1,177.19,191.73Z"/><path class="cls-8" d="M152,210.31c2.94-2.75,7.21-4.1,11.21-4.71l5.14-.77,21.66-3.25h0L204,187.64l-26.8,4a20.12,20.12,0,0,0-10.75,5.06l-8.44,8Z"/><path class="cls-10" d="M108.86,250.66v31.77l0,0L131.36,260l41.16-41.16,13.93-13.93h0l3.51-3.52-21.66,3.25-5.14.78c-4,.6-8.27,2-11.21,4.7l-8.81,8.3-34.26,32.28Z"/><polygon class="cls-11" points="31.39 205.01 27.87 201.5 27.87 201.5 31.39 205.01"/><polygon class="cls-11" points="45.32 218.95 31.39 205.01 31.39 205.01 45.32 218.95"/><path class="cls-11" d="M0,173.62l13.93,13.94Z"/></g></g></svg>